<svg width="100" height="100" viewBox="0 0 100 100" fill="none" xmlns="http://www.w3.org/2000/svg">
<rect width="100" height="100" rx="29" fill="#232323"/>
<path d="M76.9488 26.058C76.1515 26.0704 75.3146 25.9425 74.5253 25.8286C67.8918 24.8721 61.3353 21.5297 56.4496 16.9772C55.4686 16.0631 54.4759 15.0757 53.6725 14C62.7617 15.1851 70.8074 19.1623 76.9488 26.058Z" fill="white"/>
<path d="M22.5888 26.8043C23.3938 25.8272 24.2859 24.9649 25.1984 24.0906C30.6248 18.8711 37.5048 15.4232 44.9291 14.2026C44.977 14.1934 45.0428 14.1792 45.0903 14.1782C45.4292 14.1718 45.81 14.9291 46.019 15.2109C47.3937 17.0889 48.9738 18.807 50.7297 20.3336C58.6654 27.2549 69.4127 30.5361 79.8648 29.8121C83.1756 34.5264 85.2389 40.0044 85.8616 45.7343C78.244 47.153 71.5271 46.5845 64.804 42.4449C62.4622 40.9477 60.2198 39.1923 58.4344 37.0436C57.5038 35.9236 56.7283 34.7009 55.7575 33.6058C52.4231 29.8743 48.208 27.0394 43.4974 25.3606C36.2362 22.8281 29.4434 23.4764 22.5888 26.8043Z" fill="white"/>
<path d="M14 46.6381C14.0241 45.7769 14.2112 44.8795 14.3571 44.0314C15.0731 39.7208 16.6652 35.6032 19.0348 31.9338C19.3293 31.4735 19.593 30.9629 19.9341 30.5384C20.8132 29.4443 24.4428 28.1974 25.8164 27.8628C26.7716 27.6301 27.7395 27.5007 28.7176 27.4176C29.7554 27.2893 30.9198 27.35 31.9626 27.4147C38.4475 27.817 44.13 31.0365 48.5919 35.6235C49.5821 36.6415 50.3616 37.7963 51.262 38.8864C52.001 39.7812 52.8577 40.6262 53.7154 41.4064C58.1452 45.4357 63.2963 48.4067 69.1238 49.8309C67.296 49.9767 65.371 49.8907 63.5331 49.9006C58.6438 49.9273 53.2813 50.1924 48.6411 48.4552C45.3767 47.0549 44.3259 45.4149 41.7015 43.471C37.2355 40.1231 31.6225 38.6935 26.1022 39.4975C21.4539 40.2144 16.8074 42.8098 14 46.6381Z" fill="white"/>
<path d="M30.6321 50.0555C31.0408 50.0219 31.4562 50.0243 31.8663 50.0142L39.6688 49.9713C42.5073 49.9615 45.5933 49.7328 48.3494 50.4892C50.7901 51.1589 53.2719 52.3753 55.2961 53.8979C56.2571 54.6207 57.1417 55.4396 58.1117 56.1547C62.2666 59.2171 67.0313 60.956 72.2302 60.6718C78.0548 60.3533 82.199 57.7259 86 53.4814C85.5481 57.2361 84.7523 60.3441 83.3528 63.8575C82.8332 65.0984 81.2097 68.4251 80.3633 69.343C80.0712 69.6597 79.686 69.8852 79.3146 70.0959C70.8669 74.888 60.1752 72.4065 53.2886 66.0336C51.5733 64.4463 50.2728 62.6211 48.753 60.8677C47.351 59.25 45.6744 57.7238 43.9867 56.409C40.9054 53.9877 37.4251 52.1245 33.7032 50.9036C32.6903 50.5755 31.6558 50.343 30.6321 50.0555Z" fill="white"/>
<path d="M14.0994 54.1013C15.6928 53.8008 17.2887 53.6597 18.9067 53.5848C27.0084 53.3067 35.0313 56.1109 40.7255 62.019C41.9988 63.3402 43.0416 64.8541 44.2408 66.2366C47.2778 69.7067 51.0753 72.4258 55.3362 74.181C61.0944 76.5222 67.4521 76.919 73.3879 74.982C74.7668 74.5319 76.0437 73.887 77.3752 73.3227C76.7103 74.0433 76.0691 74.7956 75.3778 75.4905C73.6448 77.2328 71.6806 78.8138 69.6432 80.1827C65.2984 83.2029 59.9773 85.1264 54.7639 85.8703C53.5831 84.2334 52.3688 82.6427 50.9333 81.219C44.6478 74.9856 36.1164 71.2526 27.3663 70.241C25.0013 69.9675 22.597 69.9516 20.219 69.9627C16.9925 65.2793 14.5726 59.8241 14.0994 54.1013Z" fill="white"/>
<path d="M46.4287 86C41.9796 85.5877 37.5532 84.0571 33.6257 81.9595C30.1863 80.1225 27.1943 77.9461 24.4227 75.199C24.1186 74.8976 23.3375 74.271 23.2169 73.8754C23.2789 73.8782 23.3407 73.8817 23.4026 73.8861C24.8469 73.9814 26.3269 74.3176 27.7289 74.6649C34.964 76.4607 41.4846 80.4133 46.4287 86Z" fill="white"/>
</svg>
